<svg xmlns="http://www.w3.org/2000/svg" viewBox="0 0 64 64" fill="none">
  <defs>
    <linearGradient id="g" x1="0" y1="0" x2="64" y2="64" gradientUnits="userSpaceOnUse">
      <stop offset="0%" stop-color="#22d3ee"/>
      <stop offset="100%" stop-color="#a855f7"/>
    </linearGradient>
  </defs>
  <rect width="64" height="64" rx="14" fill="#0b1220"/>
  <rect x="3" y="3" width="58" height="58" rx="12" fill="none" stroke="url(#g)" stroke-width="2"/>
  <path d="M16 23a5 5 0 0 1 5-5h4l3-4h8l3 4h4a5 5 0 0 1 5 5v17a5 5 0 0 1-5 5H21a5 5 0 0 1-5-5V23Z" fill="url(#g)" opacity="0.18"/>
  <path d="M16 23a5 5 0 0 1 5-5h4l3-4h8l3 4h4a5 5 0 0 1 5 5v17a5 5 0 0 1-5 5H21a5 5 0 0 1-5-5V23Z" stroke="url(#g)" stroke-width="2.5" stroke-linejoin="round"/>
  <circle cx="32" cy="33" r="8" stroke="url(#g)" stroke-width="2.5"/>
  <circle cx="32" cy="33" r="3" fill="url(#g)"/>
</svg>
